<svg width="160" height="44" viewBox="0 0 160 44" fill="none" xmlns="http://www.w3.org/2000/svg">
<path d="M3.86284 42.3809C2.85026 41.8622 2.06332 41.1248 1.48467 40.1862C0.906026 39.2476 0.623061 38.1772 0.618347 36.975C0.613634 35.7728 0.896908 34.7001 1.45947 33.7571C2.03074 32.814 2.81187 32.0704 3.82035 31.5438C4.82884 31.0171 5.95156 30.7427 7.21473 30.7377C8.36465 30.7332 9.4021 30.9295 10.301 31.3354C11.1999 31.7414 11.9601 32.3221 12.5468 33.0951L10.0293 35.3613C9.29391 34.4407 8.42092 33.9737 7.42781 33.9776C6.5915 33.9809 5.92178 34.2536 5.40991 34.7957C4.90676 35.3378 4.64822 36.0532 4.65177 36.9592C4.65532 37.8652 4.91079 38.5872 5.42686 39.1166C5.94295 39.6547 6.6148 39.9221 7.4511 39.9188C8.44421 39.915 9.31355 39.4498 10.0417 38.5148L12.5768 40.7612C11.9875 41.5301 11.2493 42.1254 10.3449 42.5384C9.44053 42.9514 8.41336 43.1558 7.26344 43.1603C6.00898 43.1652 4.87546 42.9083 3.86284 42.3809Z" fill="#2775FF"/>
<path d="M19.2586 34.0706L15.7827 34.0842L15.7705 30.9829L26.7296 30.94L26.7417 34.0413L23.2658 34.0549L23.3002 42.8274L19.2929 42.8431L19.2586 34.0706Z" fill="#2775FF"/>
<path d="M35.9379 39.7897L34.849 39.794L34.8607 42.782L30.8534 42.7978L30.8069 30.924L36.5216 30.9016C37.6193 30.8973 38.5783 31.0765 39.3898 31.4304C40.2014 31.7844 40.8394 32.3046 41.2776 32.9824C41.7159 33.6602 41.9455 34.4521 41.949 35.3581C41.9523 36.2031 41.7636 36.9443 41.3828 37.5818C41.002 38.2192 40.4464 38.7267 39.7248 39.0954L42.2307 42.7531L37.9533 42.7699L35.9205 39.7898L35.9379 39.7897ZM37.5108 34.3475C37.2398 34.1046 36.8299 33.9843 36.2898 33.9864L34.835 33.9921L34.8459 36.7711L36.3007 36.7654C36.8408 36.7633 37.2498 36.6397 37.5189 36.3947C37.788 36.1497 37.926 35.8094 37.9243 35.3651C37.9225 34.9209 37.7818 34.5817 37.5108 34.3388L37.5108 34.3475Z" fill="#2775FF"/>
<path d="M57.162 42.6946L57.106 37.2849L54.5444 41.6421L52.776 41.649L50.1811 37.5037L50.2016 42.7306L46.5514 42.745L46.5049 30.8712L49.7978 30.8583L53.6905 37.1677L57.4291 30.8284L60.7221 30.8154L60.8035 42.6891L57.1533 42.7034L57.162 42.6946Z" fill="#2775FF"/>
<path d="M67.8194 34.3942L67.8221 35.0911L69.216 35.0857L69.2187 35.7826L67.8249 35.7881L67.8291 36.877L66.9319 36.8805L66.9194 33.7095L69.4022 33.6998L69.4049 34.388L67.8194 34.3942Z" fill="white"/>
<path d="M70.7455 36.5345C70.4831 36.2829 70.351 35.9175 70.3492 35.4471L70.3423 33.6874L71.2396 33.6839L71.2463 35.4087C71.2483 35.914 71.4497 36.1658 71.8504 36.1643C72.2511 36.1627 72.4505 35.9093 72.4485 35.404L72.4418 33.6791L73.3216 33.6757L73.3285 35.4354C73.3304 35.9058 73.2011 36.2722 72.9408 36.5259C72.6804 36.7796 72.315 36.9117 71.8446 36.9135C71.3742 36.9153 71.0078 36.7861 70.7455 36.5345Z" fill="white"/>
<path d="M77.0161 36.1353L77.0188 36.8235L74.4751 36.8335L74.4626 33.6625L76.9454 33.6527L76.9481 34.3409L75.3539 34.3472L75.356 34.8786L76.7673 34.8731L76.7699 35.5439L75.3586 35.5494L75.3609 36.1243L77.0161 36.1179L77.0161 36.1353Z" fill="white"/>
<path d="M78.0522 33.6571L78.9495 33.6536L78.9592 36.1102L80.4663 36.1043L80.4691 36.8187L78.0647 36.8281L78.0522 33.6571Z" fill="white"/>
<path d="M81.3538 33.6442L82.251 33.6407L82.2635 36.8117L81.3662 36.8152L81.3538 33.6442Z" fill="white"/>
<path d="M86.4412 33.6242L86.4536 36.7952L85.7131 36.7981L84.3127 35.1136L84.3193 36.8036L83.4394 36.807L83.427 33.636L84.1675 33.6331L85.5767 35.3177L85.57 33.6276L86.4499 33.6242L86.4412 33.6242Z" fill="white"/>
<path d="M89.7487 35.1271L90.5415 35.124L90.5466 36.4394C90.3642 36.5708 90.1555 36.6675 89.9206 36.7381C89.6856 36.8087 89.4505 36.8445 89.2153 36.8454C88.8843 36.8467 88.5878 36.7781 88.3172 36.6398C88.0466 36.5015 87.8455 36.3019 87.6877 36.0586C87.5386 35.8066 87.4591 35.5281 87.4579 35.2058C87.4566 34.8834 87.5339 34.6044 87.681 34.3512C87.8281 34.0979 88.0364 33.9055 88.306 33.765C88.5755 33.6246 88.8801 33.5537 89.2111 33.5524C89.5073 33.5512 89.7689 33.6025 90.0045 33.6974C90.24 33.7923 90.4323 33.9396 90.5985 34.1219L90.0256 34.6382C89.8069 34.4038 89.5537 34.2828 89.2576 34.284C88.9875 34.2851 88.77 34.3643 88.6052 34.5305C88.4403 34.6966 88.354 34.9148 88.3551 35.1935C88.3558 35.3678 88.3913 35.5244 88.4702 35.6635C88.5492 35.8026 88.6541 35.9067 88.7851 35.9846C88.9248 36.0625 89.073 36.0967 89.256 36.096C89.4389 36.0953 89.5869 36.0599 89.7434 35.9896L89.74 35.1184L89.7487 35.1271Z" fill="white"/>
<path d="M94.1797 34.3082L93.204 34.3121L93.2012 33.5977L96.0411 33.5866L96.0439 34.3009L95.077 34.3047L95.0866 36.7614L94.1893 36.7649L94.1797 34.3082Z" fill="white"/>
<path d="M99.9351 33.5713L99.9475 36.7423L99.0502 36.7458L99.0454 35.5088L97.8258 35.5136L97.8306 36.7506L96.9333 36.7541L96.9209 33.5832L97.8182 33.5796L97.8229 34.7731L99.0425 34.7683L99.0378 33.5749L99.9351 33.5713Z" fill="white"/>
<path d="M103.665 36.0308L103.668 36.719L101.124 36.729L101.111 33.558L103.594 33.5482L103.597 34.2365L102.003 34.2427L102.005 34.7741L103.416 34.7686L103.419 35.4394L102.007 35.4449L102.01 36.0199L103.665 36.0134L103.665 36.0308Z" fill="white"/>
<path d="M108.752 33.6848C108.961 33.7798 109.127 33.9098 109.241 34.0923C109.355 34.2661 109.417 34.475 109.418 34.7102C109.419 34.9454 109.359 35.1547 109.246 35.3294C109.134 35.5041 108.969 35.6441 108.76 35.732C108.551 35.8287 108.299 35.8732 108.011 35.8743L107.462 35.8765L107.466 36.7041L106.568 36.7076L106.556 33.5366L108.002 33.531C108.289 33.5298 108.542 33.5724 108.752 33.6674L108.752 33.6848ZM108.374 35.054C108.469 34.9752 108.513 34.8618 108.512 34.7137C108.511 34.5656 108.467 34.4526 108.371 34.3745C108.275 34.2965 108.136 34.2535 107.953 34.2542L107.456 34.2562L107.46 35.1796L107.956 35.1776C108.139 35.1769 108.278 35.1328 108.374 35.054Z" fill="white"/>
<path d="M111.141 36.5501C110.871 36.4118 110.661 36.2122 110.512 35.9689C110.363 35.7168 110.283 35.4384 110.282 35.1248C110.281 34.8111 110.358 34.5321 110.505 34.2789C110.652 34.0256 110.86 33.8332 111.13 33.6927C111.399 33.5523 111.695 33.4814 112.035 33.4801C112.375 33.4788 112.671 33.5473 112.942 33.6856C113.213 33.8239 113.422 34.0235 113.571 34.2668C113.721 34.5189 113.8 34.7973 113.801 35.111C113.802 35.4246 113.725 35.7037 113.578 35.9569C113.431 36.2101 113.214 36.4026 112.953 36.543C112.692 36.6834 112.388 36.7543 112.048 36.7556C111.708 36.757 111.412 36.6884 111.141 36.5501ZM112.471 35.9002C112.602 35.8213 112.706 35.7164 112.775 35.5767C112.844 35.437 112.887 35.2801 112.887 35.1058C112.886 34.9316 112.85 34.7662 112.771 34.6359C112.693 34.5055 112.596 34.3926 112.465 34.3147C112.334 34.2368 112.195 34.2025 112.029 34.2032C111.864 34.2038 111.724 34.2392 111.594 34.3181C111.464 34.3971 111.36 34.502 111.29 34.6417C111.221 34.7813 111.178 34.9383 111.179 35.1125C111.18 35.2868 111.215 35.4521 111.294 35.5825C111.373 35.7129 111.478 35.8257 111.6 35.9036C111.723 35.9816 111.871 36.0158 112.036 36.0152C112.202 36.0145 112.341 35.9791 112.471 35.9002Z" fill="white"/>
<path d="M119.667 33.494L118.651 36.669L117.693 36.6728L117.076 34.7499L116.447 36.6777L115.489 36.6814L114.449 33.5145L115.372 33.5108L116.016 35.5294L116.679 33.5057L117.506 33.5025L118.15 35.5385L118.804 33.4974L119.658 33.494L119.667 33.494Z" fill="white"/>
<path d="M123.083 35.9546L123.085 36.6429L120.541 36.6528L120.529 33.4818L123.012 33.4721L123.015 34.1603L121.42 34.1666L121.422 34.698L122.834 34.6924L122.836 35.3632L121.425 35.3688L121.427 35.9437L123.082 35.9372L123.083 35.9546Z" fill="white"/>
<path d="M125.504 35.7971L125.016 35.799L125.019 36.644L124.122 36.6475L124.109 33.4766L125.555 33.4709C125.843 33.4698 126.087 33.5124 126.305 33.6073C126.515 33.7023 126.681 33.8324 126.795 34.0149C126.909 34.1974 126.97 34.3975 126.971 34.6327C126.972 34.8679 126.921 35.0598 126.817 35.2344C126.713 35.409 126.557 35.5403 126.357 35.6369L127.04 36.6274L126.082 36.6312L125.504 35.7884L125.504 35.7971ZM125.925 34.2971C125.828 34.219 125.689 34.176 125.506 34.1767L125.009 34.1787L125.013 35.1021L125.51 35.1001C125.693 35.0994 125.832 35.0553 125.927 34.9765C126.023 34.8978 126.066 34.7843 126.065 34.6363C126.065 34.4882 126.021 34.3751 125.925 34.2971Z" fill="white"/>
<path d="M67.623 40.0662L66.6473 40.0701L66.6445 39.3557L69.4845 39.3446L69.4873 40.0589L68.5203 40.0627L68.5299 42.5194L67.6326 42.5229L67.623 40.0662Z" fill="white"/>
<path d="M71.0208 42.3615C70.7502 42.2231 70.5403 42.0236 70.3913 41.7803C70.2422 41.5282 70.1627 41.2497 70.1615 40.9361C70.1602 40.6225 70.2375 40.3434 70.3846 40.0902C70.5317 39.837 70.7401 39.6445 71.0096 39.5041C71.2791 39.3637 71.575 39.2928 71.9148 39.2915C72.2545 39.2901 72.551 39.3587 72.8216 39.497C73.0922 39.6353 73.302 39.8349 73.4511 40.0782C73.6002 40.3303 73.6797 40.6087 73.6809 40.9223C73.6821 41.2359 73.6048 41.515 73.4577 41.7682C73.3106 42.0215 73.0936 42.214 72.8328 42.3544C72.572 42.4948 72.2673 42.5657 71.9276 42.567C71.5879 42.5683 71.2914 42.4998 71.0208 42.3615ZM72.3511 41.7116C72.4815 41.6327 72.5856 41.5277 72.6548 41.3881C72.7239 41.2484 72.7668 41.0914 72.7662 40.9172C72.7655 40.743 72.73 40.5776 72.6511 40.4472C72.5721 40.3169 72.4759 40.204 72.3449 40.1261C72.2139 40.0482 72.0744 40.0139 71.9089 40.0146C71.7434 40.0152 71.6041 40.0506 71.4737 40.1295C71.3434 40.2084 71.2393 40.3134 71.1701 40.453C71.101 40.5927 71.058 40.7497 71.0587 40.9239C71.0594 41.0981 71.0949 41.2635 71.1738 41.3939C71.2527 41.5242 71.3577 41.6371 71.48 41.715C71.6022 41.7929 71.7505 41.8272 71.916 41.8266C72.0815 41.8259 72.2207 41.7905 72.3511 41.7116Z" fill="white"/>
<path d="M77.2229 40.0285L76.2472 40.0324L76.2444 39.318L79.0843 39.3069L79.0871 40.0212L78.1202 40.025L78.1298 42.4817L77.2325 42.4852L77.2229 40.0285Z" fill="white"/>
<path d="M81.3503 41.6241L80.8625 41.626L80.8658 42.471L79.9685 42.4745L79.9561 39.3035L81.4022 39.2979C81.6896 39.2967 81.9337 39.3393 82.1519 39.4343C82.3614 39.5293 82.5274 39.6593 82.6413 39.8418C82.7553 40.0243 82.8171 40.2245 82.818 40.4597C82.8189 40.6949 82.7674 40.8867 82.6636 41.0614C82.5597 41.236 82.4034 41.3673 82.2034 41.4639L82.8868 42.4544L81.9285 42.4581L81.3503 41.6154L81.3503 41.6241ZM81.7713 40.124C81.6752 40.046 81.5356 40.003 81.3527 40.0037L80.8561 40.0056L80.8597 40.9291L81.3563 40.9271C81.5392 40.9264 81.6784 40.8823 81.774 40.8035C81.8695 40.7247 81.9126 40.6113 81.912 40.4632C81.9114 40.3151 81.8674 40.202 81.7713 40.124Z" fill="white"/>
<path d="M85.985 41.8324L84.6434 41.8376L84.3932 42.4571L83.4785 42.4607L84.8599 39.2843L85.7398 39.2808L87.1548 42.4463L86.2226 42.45L85.9676 41.8324L85.985 41.8324ZM85.721 41.1713L85.3076 40.1624L84.9022 41.1745L85.7123 41.1713L85.721 41.1713Z" fill="white"/>
<path d="M87.9525 39.2722L89.4508 39.2663C89.7993 39.2649 90.1044 39.3247 90.375 39.4543C90.6456 39.5839 90.8554 39.766 91.0044 40.0007C91.1534 40.2353 91.2242 40.5138 91.2255 40.8361C91.2267 41.1584 91.1581 41.4375 91.0109 41.6733C90.8638 41.9091 90.6554 42.0928 90.3859 42.2246C90.1163 42.3563 89.8117 42.4185 89.4632 42.4198L87.9648 42.4257L87.9524 39.2547L87.9525 39.2722ZM89.4256 41.7231C89.6957 41.722 89.9132 41.6427 90.0781 41.494C90.243 41.3365 90.3206 41.1272 90.3195 40.8571C90.3185 40.587 90.2305 40.3696 90.0731 40.2221C89.9157 40.0746 89.6889 39.9971 89.4189 39.9982L88.8526 40.0004L88.8594 41.734L89.4257 41.7318L89.4256 41.7231Z" fill="white"/>
<path d="M94.784 41.7282L94.7867 42.4164L92.2429 42.4264L92.2305 39.2554L94.7133 39.2456L94.7159 39.9338L93.1217 39.9401L93.1238 40.4715L94.5351 40.466L94.5377 41.1367L93.1265 41.1423L93.1287 41.7172L94.7839 41.7107L94.784 41.7282Z" fill="white"/>
<path d="M38.0426 25.6686L23.6947 25.7249C16.9085 25.7515 11.303 20.32 11.259 13.5338C11.215 6.74759 16.7077 1.20287 23.4852 1.1763L41.1783 1.10693L41.2022 7.19627L23.6049 7.26526C20.2162 7.27855 17.3955 9.9815 17.3565 13.3705C17.3178 16.8204 20.1252 19.6407 23.5576 19.6273L35.1613 19.5818L35.149 16.4456L23.5888 16.4909C21.9075 16.4975 20.5345 15.1352 20.5279 13.4539L20.5268 13.1838C20.5208 11.6506 21.7617 10.4 23.2949 10.394L41.2144 10.3237L41.2618 22.4153C41.2688 24.2011 39.8284 25.6529 38.0425 25.6599L38.0426 25.6686Z" fill="white"/>
<path d="M49.5935 25.4404L46.7361 25.4516L46.6562 5.07539C46.6501 3.51603 47.5592 2.09247 48.9767 1.44225C50.3593 0.800878 52.0067 1.02092 53.1778 1.98332L72.1669 16.9713L72.1041 0.942124L78.1934 0.918249L78.2734 21.3206C78.2795 22.8799 77.3704 24.3035 75.9529 24.9537C74.5703 25.5951 72.923 25.375 71.7518 24.4126L52.7627 9.42468L52.8128 22.2045C52.8198 23.9903 51.3793 25.4421 49.5935 25.4491L49.5935 25.4404Z" fill="white"/>
<path d="M87.279 25.2055L84.4216 25.2167L84.3267 0.98999L90.416 0.966115L90.4983 21.9608C90.5053 23.7467 89.0649 25.1985 87.279 25.2055Z" fill="white"/>
<path d="M3.28377 25.7185L0.426403 25.7297L0.330322 1.22424L6.41966 1.20037L6.50307 22.4739C6.51007 24.2597 5.06963 25.7115 3.28377 25.7185Z" fill="white"/>
<path d="M159.838 0.572018L142.145 0.641388C135.376 0.667928 129.892 6.19518 129.918 12.964C129.945 19.7329 135.472 25.2169 142.241 25.1904L159.934 25.121L159.91 19.0317L142.217 19.1011C138.811 19.1144 136.021 16.355 136.008 12.9401C135.994 9.52523 138.754 6.74412 142.168 6.73073L159.862 6.66136L159.838 0.572018Z" fill="white"/>
<path d="M139.701 12.9954C139.708 14.6767 141.081 16.039 142.762 16.0324L159.907 15.9652L159.883 9.87587L142.738 9.94309C141.057 9.94969 139.695 11.3228 139.701 13.0041L139.701 12.9954Z" fill="white"/>
<path d="M127.849 0.784532L96.1047 0.908997L96.1286 6.99833L108.961 6.94802L109.032 25.2073L111.89 25.1961C113.675 25.1891 115.116 23.7373 115.109 21.9515L115.05 6.92415L127.882 6.87383L127.858 0.784498L127.849 0.784532Z" fill="white"/>
</svg>
