<svg width="51" height="48" viewBox="0 0 51 48" fill="none" xmlns="http://www.w3.org/2000/svg">
<path d="M46.144 28.7657C45.7668 28.1226 45.0771 27.7245 44.3279 27.7275L37.2977 27.755C36.5485 27.758 35.8619 28.1614 35.4898 28.8075L31.9942 34.9107C31.6222 35.5568 31.6253 36.3582 32.0025 37.0101L35.5458 43.0857C35.9229 43.7288 36.6127 44.1269 37.3619 44.1239L44.392 44.0964C45.1412 44.0934 45.8279 43.69 46.1999 43.0439L49.6955 36.9408C50.0676 36.2946 50.0644 35.4932 49.6873 34.8413L46.144 28.7657Z" fill="#2775FF"/>
<path d="M46.144 28.7657C45.7668 28.1226 45.0771 27.7245 44.3279 27.7275L37.2977 27.755C36.5485 27.758 35.8619 28.1614 35.4898 28.8075L31.9942 34.9107C31.6222 35.5568 31.6253 36.3582 32.0025 37.0101L35.5458 43.0857C35.9229 43.7288 36.6127 44.1269 37.3619 44.1239L44.392 44.0964C45.1412 44.0934 45.8279 43.69 46.1999 43.0439L49.6955 36.9408C50.0676 36.2946 50.0644 35.4932 49.6873 34.8413L46.144 28.7657Z" fill="#2775FF"/>
<path d="M34.2878 15.3266L36.2346 11.9302C36.4249 11.5897 36.4233 11.1802 36.2303 10.8412L34.2569 7.46014C34.0639 7.12114 33.706 6.92217 33.314 6.92371L29.3938 6.93908C29.0105 6.94058 28.6454 7.1511 28.4551 7.48288L26.5083 10.8793C26.3179 11.2198 26.3195 11.6293 26.5125 11.9683L28.4859 15.3494C28.6789 15.6884 29.0368 15.8873 29.4289 15.8858L33.349 15.8704C33.7323 15.8689 34.0974 15.6584 34.2878 15.3266Z" fill="#2775FF"/>
<path d="M36.217 5.41377C36.3924 5.71799 36.7155 5.89967 37.0639 5.8983L39.1721 5.89004C39.5206 5.88867 39.8422 5.70446 40.0152 5.39888L41.0622 3.57404C41.2352 3.26846 41.2337 2.89386 41.0583 2.59835L39.9971 0.781783C39.8217 0.477564 39.4986 0.295886 39.1502 0.297252L37.042 0.305518C36.6935 0.306884 36.3719 0.49109 36.1989 0.796675L35.1519 2.62151C34.9789 2.9271 34.9804 3.30169 35.1558 3.5972L36.217 5.41377Z" fill="#2775FF"/>
<path d="M38.6834 14.4382L36.4511 18.3411C36.1655 18.8388 36.1679 19.4486 36.4573 19.944L38.7202 23.8292C39.0096 24.3246 39.5422 24.6275 40.1172 24.6252L44.6123 24.6076C45.1873 24.6053 45.7175 24.2983 46.003 23.8007L48.2353 19.8978C48.5208 19.4001 48.5184 18.7903 48.229 18.2949L45.9662 14.4097C45.6767 13.9142 45.1441 13.6114 44.5692 13.6137L40.0741 13.6313C39.4991 13.6336 38.9689 13.9405 38.6834 14.4382Z" fill="#2775FF"/>
<path d="M31.4408 42.6139C31.1338 42.0924 30.8356 41.5709 30.5287 41.0581L16.2592 41.114C15.8933 41.1155 15.5528 40.9164 15.3686 40.6035L7.10673 26.436C6.92256 26.1231 6.92099 25.7223 7.1027 25.408L15.2445 11.1674C15.4262 10.8531 15.7652 10.6514 16.1311 10.6499L22.3075 10.6257C22.9097 8.68939 24.5918 6.63556 25.4743 5.09885C25.5695 4.94167 25.6735 4.79316 25.7949 4.6533L16.1164 4.69125C13.6249 4.70102 11.3129 6.05167 10.0756 8.2083L1.92507 22.4402C0.687792 24.6056 0.698278 27.28 1.95249 29.4355L10.2057 43.6031C11.4599 45.7587 13.7824 47.0912 16.2739 47.0814L32.6777 47.0171C33.1916 47.0151 33.6879 46.9435 34.1841 46.837C32.952 45.8748 32.1513 43.8482 31.4408 42.6226L31.4408 42.6139Z" fill="white"/>
</svg>
