<svg width="21" height="20" viewBox="0 0 21 20" fill="none" xmlns="http://www.w3.org/2000/svg">
<path d="M18.4584 9.63892C18.4584 14.0416 14.7269 17.6112 10.1251 17.6112C9.584 17.6119 9.04441 17.5618 8.51291 17.4621C8.13036 17.3902 7.93906 17.3543 7.80552 17.3747C7.67197 17.3951 7.48273 17.4957 7.10424 17.697C6.03353 18.2664 4.78504 18.4675 3.58434 18.2442C4.0407 17.6828 4.35237 17.0093 4.4899 16.2873C4.57323 15.8457 4.36675 15.4167 4.05749 15.1026C2.65286 13.6763 1.79175 11.7543 1.79175 9.63892C1.79175 5.23631 5.52323 1.66667 10.1251 1.66667C14.7269 1.66667 18.4584 5.23631 18.4584 9.63892Z" stroke="#181818" stroke-width="1.25" stroke-linejoin="round"/>
<path d="M10.1213 10H10.1288M13.4509 10H13.4584M6.79175 10H6.79922" stroke="#181818" stroke-width="1.66667" stroke-linecap="round" stroke-linejoin="round"/>
</svg>
