<svg width="21" height="20" viewBox="0 0 21 20" fill="none" xmlns="http://www.w3.org/2000/svg">
<path d="M16.875 4.58333L16.3586 12.9376C16.2266 15.072 16.1607 16.1392 15.6257 16.9066C15.3611 17.2859 15.0206 17.6061 14.6256 17.8467C13.8267 18.3333 12.7575 18.3333 10.6189 18.3333C8.4776 18.3333 7.40692 18.3333 6.60754 17.8457C6.21233 17.6047 5.87167 17.284 5.60723 16.904C5.0724 16.1355 5.00787 15.0667 4.87884 12.9293L4.375 4.58333" stroke="#181818" stroke-width="1.25" stroke-linecap="round"/>
<path d="M8.125 9.7793H13.125" stroke="#181818" stroke-width="1.25" stroke-linecap="round"/>
<path d="M9.375 13.0452H11.875" stroke="#181818" stroke-width="1.25" stroke-linecap="round"/>
<path d="M3.125 4.58334H18.125M14.0046 4.58334L13.4357 3.40978C13.0578 2.63022 12.8688 2.24044 12.5429 1.99735C12.4707 1.94342 12.3941 1.89546 12.314 1.85392C11.9531 1.66667 11.5199 1.66667 10.6536 1.66667C9.7655 1.66667 9.3215 1.66667 8.95457 1.86177C8.87326 1.90501 8.79566 1.95492 8.72258 2.01098C8.39287 2.26392 8.2087 2.66796 7.84035 3.47606L7.33561 4.58334" stroke="#181818" stroke-width="1.25" stroke-linecap="round"/>
</svg>
