<svg width="20" height="20" viewBox="0 0 20 20" fill="none" xmlns="http://www.w3.org/2000/svg">
<g clip-path="url(#clip0_10671_1320)">
<path d="M19.7794 16.8998L11.5104 1.41013C11.2143 0.855445 10.6496 0.524292 10 0.524292C9.35039 0.524292 8.78575 0.855445 8.48965 1.41013L0.220598 16.8998C-0.0779629 17.4592 -0.0732735 18.0836 0.233494 18.6129C0.54671 19.1532 1.10651 19.4758 1.73103 19.4758H18.269C18.8935 19.4758 19.4534 19.1532 19.7665 18.6129C20.0733 18.0836 20.078 17.4592 19.7794 16.8998ZM18.7522 18.025C18.6466 18.2071 18.4795 18.3034 18.269 18.3034H1.73103C1.52047 18.3034 1.35337 18.2071 1.24778 18.025C1.14454 17.8469 1.14696 17.654 1.25485 17.4519L9.52383 1.96227C9.6472 1.73116 9.8751 1.69665 10 1.69665C10.1249 1.69665 10.3528 1.73116 10.4762 1.96227L18.7452 17.4519C18.8531 17.654 18.8555 17.8468 18.7522 18.025Z" fill="#EC162E"/>
<path d="M10 13.6147C9.03034 13.6147 8.24146 14.4036 8.24146 15.3733C8.24146 16.3429 9.03034 17.1318 10 17.1318C10.9697 17.1318 11.7585 16.3429 11.7585 15.3733C11.7585 14.4036 10.9697 13.6147 10 13.6147ZM10 15.9594C9.67678 15.9594 9.41382 15.6965 9.41382 15.3733C9.41382 15.0501 9.67678 14.7871 10 14.7871C10.3232 14.7871 10.5862 15.0501 10.5862 15.3733C10.5862 15.6965 10.3232 15.9594 10 15.9594Z" fill="#EC162E"/>
<path d="M10 5.54501C9.03034 5.54501 8.24146 6.33389 8.24146 7.30355V10.6839C8.24146 11.6535 9.03038 12.4424 10 12.4424C10.9697 12.4424 11.7585 11.6535 11.7585 10.6839V7.30355C11.7585 6.33389 10.9697 5.54501 10 5.54501ZM10.5862 10.6839C10.5862 11.0071 10.3232 11.27 10 11.27C9.67678 11.27 9.41382 11.0071 9.41382 10.6839V7.30355C9.41382 6.98033 9.67678 6.71737 10 6.71737H10C10.3233 6.71737 10.5862 6.98033 10.5862 7.30355V10.6839Z" fill="#EC162E"/>
</g>
<defs>
<clipPath id="clip0_10671_1320">
<rect width="20" height="20" fill="white"/>
</clipPath>
</defs>
</svg>
