<svg width="20" height="20" viewBox="0 0 20 20" fill="none" xmlns="http://www.w3.org/2000/svg">
<g clip-path="url(#clip0_10671_1292)">
<path d="M4.29122 17.5196L3.31293 19.0249C3.12358 19.3184 3.20563 19.7097 3.49912 19.899C3.60642 19.9684 3.72321 20 3.8431 20C4.05138 20 4.25338 19.899 4.37327 19.7128L5.32948 18.2422C6.69907 19.0564 8.29591 19.5266 10 19.5266C11.7073 19.5266 13.3041 19.0565 14.6706 18.2391L15.6237 19.7097C15.7436 19.8959 15.9487 19.9969 16.1538 19.9969C16.2706 19.9969 16.3905 19.9653 16.4978 19.8959C16.7913 19.7066 16.8734 19.3153 16.684 19.0218L15.7089 17.5165C17.8043 15.8407 19.1518 13.2625 19.1518 10.3749C19.1518 5.32881 15.0462 1.22314 10 1.22314C4.95393 1.22314 0.848267 5.32876 0.848267 10.3749C0.848267 13.2624 2.19578 15.8407 4.29122 17.5196ZM10 2.48538C14.3519 2.48538 17.8895 6.02304 17.8895 10.3749C17.8895 14.7267 14.3519 18.2644 10 18.2644C5.64821 18.2644 2.11056 14.7267 2.11056 10.3749C2.11056 6.02304 5.64821 2.48538 10 2.48538Z" fill="#FEB42B"/>
<path d="M12.1081 13.0605C12.228 13.1646 12.3764 13.2151 12.5247 13.2151C12.7014 13.2151 12.875 13.1425 13.0012 13.0005C13.2316 12.7386 13.2032 12.341 12.9412 12.1106L10.6312 10.0877V5.01005C10.6312 4.66291 10.3472 4.37891 10 4.37891C9.6529 4.37891 9.3689 4.66291 9.3689 5.01005V10.3749C9.3689 10.5579 9.44779 10.7315 9.58349 10.8514L12.1081 13.0605Z" fill="#FEB42B"/>
<path d="M2.11062 3.28381C2.27473 3.28381 2.43884 3.22067 2.5619 3.09445C3.31299 2.3276 4.16506 1.68697 5.0897 1.18837C5.39578 1.02426 5.51257 0.642437 5.34846 0.333135C5.18435 0.0270485 4.80253 -0.0897368 4.49323 0.0743739C3.45186 0.632951 2.49881 1.34931 1.65623 2.21087C1.41323 2.4602 1.41639 2.86093 1.66572 3.10394C1.79188 3.22389 1.95283 3.28381 2.11062 3.28381Z" fill="#FEB42B"/>
<path d="M14.9105 1.18837C15.8383 1.68382 16.6872 2.32761 17.4383 3.09446C17.5613 3.22068 17.7255 3.28382 17.8896 3.28382C18.0474 3.28382 18.2083 3.22384 18.3314 3.10395C18.5807 2.86094 18.5838 2.46015 18.3408 2.21088C17.5014 1.35248 16.5452 0.632959 15.5038 0.0744349C15.1946 -0.0896757 14.8127 0.0271095 14.6486 0.333196C14.4876 0.642445 14.6012 1.02426 14.9105 1.18837Z" fill="#FEB42B"/>
</g>
<defs>
<clipPath id="clip0_10671_1292">
<rect width="20" height="20" fill="white"/>
</clipPath>
</defs>
</svg>
