<svg width="20" height="20" viewBox="0 0 20 20" fill="none" xmlns="http://www.w3.org/2000/svg">
<path d="M11.1749 17.325L9.99997 18.0834C8.9083 18.7584 7.39163 18 7.39163 16.65V12.1917C7.39163 11.6 7.0583 10.8417 6.71663 10.425L3.51661 7.05834C3.09161 6.63334 2.7583 5.88335 2.7583 5.37502V3.44168C2.7583 2.43335 3.51665 1.67502 4.44165 1.67502H15.5583C16.4833 1.67502 17.2416 2.43334 17.2416 3.35834V5.20834C17.2416 5.88334 16.8166 6.72502 16.4 7.14168" stroke="#C0C4CF" stroke-miterlimit="10" stroke-linecap="round" stroke-linejoin="round"/>
<path d="M14.2333 9.90834L11.2832 12.8583C11.1666 12.975 11.0583 13.1917 11.0333 13.35L10.8749 14.475C10.8166 14.8833 11.0999 15.1667 11.5083 15.1083L12.6332 14.95C12.7916 14.925 13.0166 14.8167 13.1249 14.7L16.0749 11.75C16.5832 11.2417 16.8249 10.65 16.0749 9.9C15.3332 9.15833 14.7416 9.40001 14.2333 9.90834Z" stroke="#C0C4CF" stroke-miterlimit="10" stroke-linecap="round" stroke-linejoin="round"/>
<path d="M13.8167 10.325C14.0667 11.225 14.7666 11.925 15.6666 12.175" stroke="#C0C4CF" stroke-miterlimit="10" stroke-linecap="round" stroke-linejoin="round"/>
</svg>
