<svg width="20" height="20" viewBox="0 0 20 20" fill="none" xmlns="http://www.w3.org/2000/svg">
<path d="M7.33333 10.6667L9.33333 12.6667L12.6667 8M18 10C18 11.0506 17.7931 12.0909 17.391 13.0615C16.989 14.0321 16.3997 14.914 15.6569 15.6569C14.914 16.3997 14.0321 16.989 13.0615 17.391C12.0909 17.7931 11.0506 18 10 18C8.94943 18 7.90914 17.7931 6.93853 17.391C5.96793 16.989 5.08601 16.3997 4.34315 15.6569C3.60028 14.914 3.011 14.0321 2.60896 13.0615C2.20693 12.0909 2 11.0506 2 10C2 7.87827 2.84285 5.84344 4.34315 4.34315C5.84344 2.84285 7.87827 2 10 2C12.1217 2 14.1566 2.84285 15.6569 4.34315C17.1571 5.84344 18 7.87827 18 10Z" stroke="#2BFECD" stroke-width="1.5" stroke-linecap="round" stroke-linejoin="round"/>
</svg>
