<svg width="220" height="49" viewBox="0 0 220 49" fill="none" xmlns="http://www.w3.org/2000/svg">
<g clip-path="url(#clip0_10664_18294)">
<path d="M46.144 29.7657C45.7668 29.1226 45.0771 28.7245 44.3279 28.7275L37.2977 28.755C36.5485 28.758 35.8619 29.1614 35.4898 29.8075L31.9942 35.9107C31.6222 36.5568 31.6253 37.3582 32.0025 38.0101L35.5458 44.0857C35.9229 44.7288 36.6127 45.1269 37.3619 45.1239L44.392 45.0964C45.1412 45.0934 45.8279 44.69 46.1999 44.0439L49.6955 37.9408C50.0676 37.2946 50.0644 36.4932 49.6873 35.8413L46.144 29.7657Z" fill="#2775FF"/>
<path d="M46.144 29.7657C45.7668 29.1226 45.0771 28.7245 44.3279 28.7275L37.2977 28.755C36.5485 28.758 35.8619 29.1614 35.4898 29.8075L31.9942 35.9107C31.6222 36.5568 31.6253 37.3582 32.0025 38.0101L35.5458 44.0857C35.9229 44.7288 36.6127 45.1269 37.3619 45.1239L44.392 45.0964C45.1412 45.0934 45.8279 44.69 46.1999 44.0439L49.6955 37.9408C50.0676 37.2946 50.0644 36.4932 49.6873 35.8413L46.144 29.7657Z" fill="#2775FF"/>
<path d="M34.2878 16.3266L36.2346 12.9302C36.4249 12.5897 36.4233 12.1802 36.2303 11.8412L34.2569 8.46014C34.0639 8.12114 33.706 7.92217 33.314 7.92371L29.3938 7.93908C29.0105 7.94058 28.6454 8.1511 28.4551 8.48288L26.5083 11.8793C26.3179 12.2198 26.3195 12.6293 26.5125 12.9683L28.4859 16.3494C28.6789 16.6884 29.0368 16.8873 29.4289 16.8858L33.349 16.8704C33.7323 16.8689 34.0974 16.6584 34.2878 16.3266Z" fill="#2775FF"/>
<path d="M36.217 6.41377C36.3924 6.71799 36.7155 6.89967 37.0639 6.8983L39.1721 6.89004C39.5206 6.88867 39.8422 6.70446 40.0152 6.39888L41.0622 4.57404C41.2352 4.26846 41.2337 3.89386 41.0583 3.59835L39.9971 1.78178C39.8217 1.47756 39.4986 1.29589 39.1502 1.29725L37.042 1.30552C36.6935 1.30688 36.3719 1.49109 36.1989 1.79668L35.1519 3.62151C34.9789 3.9271 34.9804 4.30169 35.1558 4.5972L36.217 6.41377Z" fill="#2775FF"/>
<path d="M38.6834 15.4382L36.4511 19.3411C36.1655 19.8388 36.1679 20.4486 36.4573 20.944L38.7202 24.8292C39.0096 25.3246 39.5422 25.6275 40.1172 25.6252L44.6123 25.6076C45.1873 25.6053 45.7175 25.2983 46.003 24.8007L48.2353 20.8978C48.5208 20.4001 48.5184 19.7903 48.229 19.2949L45.9662 15.4097C45.6767 14.9142 45.1441 14.6114 44.5692 14.6137L40.0741 14.6313C39.4991 14.6336 38.9689 14.9405 38.6834 15.4382Z" fill="#2775FF"/>
<path d="M63.8628 47.3809C62.8503 46.8622 62.0633 46.1248 61.4847 45.1862C60.906 44.2476 60.6231 43.1772 60.6183 41.975C60.6136 40.7728 60.8969 39.7001 61.4595 38.7571C62.0307 37.814 62.8119 37.0704 63.8204 36.5438C64.8288 36.0171 65.9516 35.7427 67.2147 35.7377C68.3646 35.7332 69.4021 35.9295 70.301 36.3354C71.1999 36.7414 71.9601 37.3221 72.5468 38.0951L70.0293 40.3613C69.2939 39.4407 68.4209 38.9737 67.4278 38.9776C66.5915 38.9809 65.9218 39.2536 65.4099 39.7957C64.9068 40.3378 64.6482 41.0532 64.6518 41.9592C64.6553 42.8652 64.9108 43.5872 65.4269 44.1166C65.943 44.6547 66.6148 44.9221 67.4511 44.9188C68.4442 44.915 69.3135 44.4498 70.0417 43.5148L72.5768 45.7612C71.9875 46.5301 71.2493 47.1254 70.3449 47.5384C69.4405 47.9514 68.4134 48.1558 67.2634 48.1603C66.009 48.1652 64.8755 47.9083 63.8628 47.3809Z" fill="#2775FF"/>
<path d="M79.2586 39.0706L75.7827 39.0842L75.7705 35.9829L86.7296 35.94L86.7417 39.0413L83.2658 39.0549L83.3002 47.8274L79.2929 47.8431L79.2586 39.0706Z" fill="#2775FF"/>
<path d="M95.9379 44.7897L94.849 44.794L94.8607 47.782L90.8534 47.7978L90.8069 35.924L96.5216 35.9016C97.6193 35.8973 98.5783 36.0765 99.3898 36.4304C100.201 36.7844 100.839 37.3046 101.278 37.9824C101.716 38.6602 101.945 39.4521 101.949 40.3581C101.952 41.2031 101.764 41.9443 101.383 42.5818C101.002 43.2192 100.446 43.7267 99.7248 44.0954L102.231 47.7531L97.9533 47.7699L95.9205 44.7898L95.9379 44.7897ZM97.5108 39.3475C97.2398 39.1046 96.8299 38.9843 96.2898 38.9864L94.835 38.9921L94.8459 41.7711L96.3007 41.7654C96.8408 41.7633 97.2498 41.6397 97.5189 41.3947C97.788 41.1497 97.926 40.8094 97.9243 40.3651C97.9225 39.9209 97.7818 39.5817 97.5108 39.3388L97.5108 39.3475Z" fill="#2775FF"/>
<path d="M117.162 47.6946L117.106 42.2849L114.544 46.6421L112.776 46.649L110.181 42.5037L110.202 47.7306L106.551 47.745L106.505 35.8712L109.798 35.8583L113.691 42.1677L117.429 35.8284L120.722 35.8154L120.803 47.6891L117.153 47.7034L117.162 47.6946Z" fill="#2775FF"/>
<path d="M127.819 39.3942L127.822 40.0911L129.216 40.0857L129.219 40.7826L127.825 40.7881L127.829 41.877L126.932 41.8805L126.919 38.7095L129.402 38.6998L129.405 39.388L127.819 39.3942Z" fill="white"/>
<path d="M130.745 41.5345C130.483 41.2829 130.351 40.9175 130.349 40.4471L130.342 38.6874L131.24 38.6839L131.246 40.4087C131.248 40.914 131.45 41.1658 131.85 41.1643C132.251 41.1627 132.451 40.9093 132.449 40.404L132.442 38.6791L133.322 38.6757L133.329 40.4354C133.33 40.9058 133.201 41.2722 132.941 41.5259C132.68 41.7796 132.315 41.9117 131.845 41.9135C131.374 41.9153 131.008 41.7861 130.745 41.5345Z" fill="white"/>
<path d="M137.016 41.1353L137.019 41.8235L134.475 41.8335L134.463 38.6625L136.945 38.6527L136.948 39.3409L135.354 39.3472L135.356 39.8786L136.767 39.8731L136.77 40.5439L135.359 40.5494L135.361 41.1243L137.016 41.1179L137.016 41.1353Z" fill="white"/>
<path d="M138.052 38.6571L138.95 38.6536L138.959 41.1102L140.466 41.1043L140.469 41.8187L138.065 41.8281L138.052 38.6571Z" fill="white"/>
<path d="M141.354 38.6442L142.251 38.6407L142.263 41.8117L141.366 41.8152L141.354 38.6442Z" fill="white"/>
<path d="M146.441 38.6242L146.454 41.7952L145.713 41.7981L144.313 40.1136L144.319 41.8036L143.439 41.807L143.427 38.636L144.167 38.6331L145.577 40.3177L145.57 38.6276L146.45 38.6242L146.441 38.6242Z" fill="white"/>
<path d="M149.749 40.1271L150.541 40.124L150.547 41.4394C150.364 41.5708 150.155 41.6675 149.921 41.7381C149.686 41.8087 149.451 41.8445 149.215 41.8454C148.884 41.8467 148.588 41.7781 148.317 41.6398C148.047 41.5015 147.845 41.3019 147.688 41.0586C147.539 40.8066 147.459 40.5281 147.458 40.2058C147.457 39.8834 147.534 39.6044 147.681 39.3512C147.828 39.0979 148.036 38.9055 148.306 38.765C148.575 38.6246 148.88 38.5537 149.211 38.5524C149.507 38.5512 149.769 38.6025 150.004 38.6974C150.24 38.7923 150.432 38.9396 150.599 39.1219L150.026 39.6382C149.807 39.4038 149.554 39.2828 149.258 39.284C148.988 39.2851 148.77 39.3643 148.605 39.5305C148.44 39.6966 148.354 39.9148 148.355 40.1935C148.356 40.3678 148.391 40.5244 148.47 40.6635C148.549 40.8026 148.654 40.9067 148.785 40.9846C148.925 41.0625 149.073 41.0967 149.256 41.096C149.439 41.0953 149.587 41.0599 149.743 40.9896L149.74 40.1184L149.749 40.1271Z" fill="white"/>
<path d="M154.18 39.3082L153.204 39.3121L153.201 38.5977L156.041 38.5866L156.044 39.3009L155.077 39.3047L155.087 41.7614L154.189 41.7649L154.18 39.3082Z" fill="white"/>
<path d="M159.935 38.5713L159.948 41.7423L159.05 41.7458L159.045 40.5088L157.826 40.5136L157.831 41.7506L156.933 41.7541L156.921 38.5832L157.818 38.5796L157.823 39.7731L159.042 39.7683L159.038 38.5749L159.935 38.5713Z" fill="white"/>
<path d="M163.665 41.0308L163.668 41.719L161.124 41.729L161.111 38.558L163.594 38.5482L163.597 39.2365L162.003 39.2427L162.005 39.7741L163.416 39.7686L163.419 40.4394L162.007 40.4449L162.01 41.0199L163.665 41.0134L163.665 41.0308Z" fill="white"/>
<path d="M168.752 38.6848C168.961 38.7798 169.127 38.9098 169.241 39.0923C169.355 39.2661 169.417 39.475 169.418 39.7102C169.419 39.9454 169.359 40.1547 169.246 40.3294C169.134 40.5041 168.969 40.6441 168.76 40.732C168.551 40.8287 168.299 40.8732 168.011 40.8743L167.462 40.8765L167.466 41.7041L166.568 41.7076L166.556 38.5366L168.002 38.531C168.289 38.5298 168.542 38.5724 168.752 38.6674L168.752 38.6848ZM168.374 40.054C168.469 39.9752 168.513 39.8618 168.512 39.7137C168.511 39.5656 168.467 39.4526 168.371 39.3745C168.275 39.2965 168.136 39.2535 167.953 39.2542L167.456 39.2562L167.46 40.1796L167.956 40.1776C168.139 40.1769 168.278 40.1328 168.374 40.054Z" fill="white"/>
<path d="M171.141 41.5501C170.871 41.4118 170.661 41.2122 170.512 40.9689C170.363 40.7168 170.283 40.4384 170.282 40.1248C170.281 39.8111 170.358 39.5321 170.505 39.2789C170.652 39.0256 170.86 38.8332 171.13 38.6927C171.399 38.5523 171.695 38.4814 172.035 38.4801C172.375 38.4788 172.671 38.5473 172.942 38.6856C173.213 38.8239 173.422 39.0235 173.571 39.2668C173.721 39.5189 173.8 39.7973 173.801 40.111C173.802 40.4246 173.725 40.7037 173.578 40.9569C173.431 41.2101 173.214 41.4026 172.953 41.543C172.692 41.6834 172.388 41.7543 172.048 41.7556C171.708 41.757 171.412 41.6884 171.141 41.5501ZM172.471 40.9002C172.602 40.8213 172.706 40.7164 172.775 40.5767C172.844 40.437 172.887 40.2801 172.887 40.1058C172.886 39.9316 172.85 39.7662 172.771 39.6359C172.693 39.5055 172.596 39.3926 172.465 39.3147C172.334 39.2368 172.195 39.2025 172.029 39.2032C171.864 39.2038 171.724 39.2392 171.594 39.3181C171.464 39.3971 171.36 39.502 171.29 39.6417C171.221 39.7813 171.178 39.9383 171.179 40.1125C171.18 40.2868 171.215 40.4521 171.294 40.5825C171.373 40.7129 171.478 40.8257 171.6 40.9036C171.723 40.9816 171.871 41.0158 172.036 41.0152C172.202 41.0145 172.341 40.9791 172.471 40.9002Z" fill="white"/>
<path d="M179.667 38.494L178.651 41.669L177.693 41.6728L177.076 39.7499L176.447 41.6777L175.489 41.6814L174.449 38.5145L175.372 38.5108L176.016 40.5294L176.679 38.5057L177.506 38.5025L178.15 40.5385L178.804 38.4974L179.658 38.494L179.667 38.494Z" fill="white"/>
<path d="M183.083 40.9546L183.085 41.6429L180.541 41.6528L180.529 38.4818L183.012 38.4721L183.015 39.1603L181.42 39.1666L181.422 39.698L182.834 39.6924L182.836 40.3632L181.425 40.3688L181.427 40.9437L183.082 40.9372L183.083 40.9546Z" fill="white"/>
<path d="M185.504 40.7971L185.016 40.799L185.019 41.644L184.122 41.6475L184.109 38.4766L185.555 38.4709C185.843 38.4698 186.087 38.5124 186.305 38.6073C186.515 38.7023 186.681 38.8324 186.795 39.0149C186.909 39.1974 186.97 39.3975 186.971 39.6327C186.972 39.8679 186.921 40.0598 186.817 40.2344C186.713 40.409 186.557 40.5403 186.357 40.6369L187.04 41.6274L186.082 41.6312L185.504 40.7884L185.504 40.7971ZM185.925 39.2971C185.828 39.219 185.689 39.176 185.506 39.1767L185.009 39.1787L185.013 40.1021L185.51 40.1001C185.693 40.0994 185.832 40.0553 185.927 39.9765C186.023 39.8978 186.066 39.7843 186.065 39.6363C186.065 39.4882 186.021 39.3751 185.925 39.2971Z" fill="white"/>
<path d="M127.623 45.0662L126.647 45.0701L126.645 44.3557L129.484 44.3446L129.487 45.0589L128.52 45.0627L128.53 47.5194L127.633 47.5229L127.623 45.0662Z" fill="white"/>
<path d="M131.021 47.3615C130.75 47.2231 130.54 47.0236 130.391 46.7803C130.242 46.5282 130.163 46.2497 130.161 45.9361C130.16 45.6225 130.238 45.3434 130.385 45.0902C130.532 44.837 130.74 44.6445 131.01 44.5041C131.279 44.3637 131.575 44.2928 131.915 44.2915C132.255 44.2901 132.551 44.3587 132.822 44.497C133.092 44.6353 133.302 44.8349 133.451 45.0782C133.6 45.3303 133.68 45.6087 133.681 45.9223C133.682 46.2359 133.605 46.515 133.458 46.7682C133.311 47.0215 133.094 47.214 132.833 47.3544C132.572 47.4948 132.267 47.5657 131.928 47.567C131.588 47.5683 131.291 47.4998 131.021 47.3615ZM132.351 46.7116C132.481 46.6327 132.586 46.5277 132.655 46.3881C132.724 46.2484 132.767 46.0914 132.766 45.9172C132.765 45.743 132.73 45.5776 132.651 45.4472C132.572 45.3169 132.476 45.204 132.345 45.1261C132.214 45.0482 132.074 45.0139 131.909 45.0146C131.743 45.0152 131.604 45.0506 131.474 45.1295C131.343 45.2084 131.239 45.3134 131.17 45.453C131.101 45.5927 131.058 45.7497 131.059 45.9239C131.059 46.0981 131.095 46.2635 131.174 46.3939C131.253 46.5242 131.358 46.6371 131.48 46.715C131.602 46.7929 131.75 46.8272 131.916 46.8266C132.081 46.8259 132.221 46.7905 132.351 46.7116Z" fill="white"/>
<path d="M137.223 45.0285L136.247 45.0324L136.244 44.318L139.084 44.3069L139.087 45.0212L138.12 45.025L138.13 47.4817L137.233 47.4852L137.223 45.0285Z" fill="white"/>
<path d="M141.35 46.6241L140.862 46.626L140.866 47.471L139.968 47.4745L139.956 44.3035L141.402 44.2979C141.69 44.2967 141.934 44.3393 142.152 44.4343C142.361 44.5293 142.527 44.6593 142.641 44.8418C142.755 45.0243 142.817 45.2245 142.818 45.4597C142.819 45.6949 142.767 45.8867 142.664 46.0614C142.56 46.236 142.403 46.3673 142.203 46.4639L142.887 47.4544L141.929 47.4581L141.35 46.6154L141.35 46.6241ZM141.771 45.124C141.675 45.046 141.536 45.003 141.353 45.0037L140.856 45.0056L140.86 45.9291L141.356 45.9271C141.539 45.9264 141.678 45.8823 141.774 45.8035C141.869 45.7247 141.913 45.6113 141.912 45.4632C141.911 45.3151 141.867 45.202 141.771 45.124Z" fill="white"/>
<path d="M145.985 46.8324L144.643 46.8376L144.393 47.4571L143.478 47.4607L144.86 44.2843L145.74 44.2808L147.155 47.4463L146.223 47.45L145.968 46.8324L145.985 46.8324ZM145.721 46.1713L145.308 45.1624L144.902 46.1745L145.712 46.1713L145.721 46.1713Z" fill="white"/>
<path d="M147.952 44.2722L149.451 44.2663C149.799 44.2649 150.104 44.3247 150.375 44.4543C150.646 44.5839 150.855 44.766 151.004 45.0007C151.153 45.2353 151.224 45.5138 151.225 45.8361C151.227 46.1584 151.158 46.4375 151.011 46.6733C150.864 46.9091 150.655 47.0928 150.386 47.2246C150.116 47.3563 149.812 47.4185 149.463 47.4198L147.965 47.4257L147.952 44.2547L147.952 44.2722ZM149.426 46.7231C149.696 46.722 149.913 46.6427 150.078 46.494C150.243 46.3365 150.321 46.1272 150.32 45.8571C150.318 45.587 150.23 45.3696 150.073 45.2221C149.916 45.0746 149.689 44.9971 149.419 44.9982L148.853 45.0004L148.859 46.734L149.426 46.7318L149.426 46.7231Z" fill="white"/>
<path d="M154.784 46.7282L154.787 47.4164L152.243 47.4264L152.23 44.2554L154.713 44.2456L154.716 44.9338L153.122 44.9401L153.124 45.4715L154.535 45.466L154.538 46.1367L153.126 46.1423L153.129 46.7172L154.784 46.7107L154.784 46.7282Z" fill="white"/>
<path d="M98.0426 30.6686L83.6947 30.7249C76.9085 30.7515 71.303 25.32 71.259 18.5338C71.215 11.7476 76.7077 6.20287 83.4852 6.1763L101.178 6.10693L101.202 12.1963L83.6049 12.2653C80.2162 12.2785 77.3955 14.9815 77.3565 18.3705C77.3178 21.8204 80.1252 24.6407 83.5576 24.6273L95.1613 24.5818L95.149 21.4456L83.5888 21.4909C81.9075 21.4975 80.5345 20.1352 80.5279 18.4539L80.5268 18.1838C80.5208 16.6506 81.7617 15.4 83.2949 15.394L101.214 15.3237L101.262 27.4153C101.269 29.2011 99.8284 30.6529 98.0425 30.6599L98.0426 30.6686Z" fill="white"/>
<path d="M109.593 30.4404L106.736 30.4516L106.656 10.0754C106.65 8.51603 107.559 7.09247 108.977 6.44225C110.359 5.80088 112.007 6.02092 113.178 6.98332L132.167 21.9713L132.104 5.94212L138.193 5.91825L138.273 26.3206C138.28 27.8799 137.37 29.3035 135.953 29.9537C134.57 30.5951 132.923 30.375 131.752 29.4126L112.763 14.4247L112.813 27.2045C112.82 28.9903 111.379 30.4421 109.593 30.4491L109.593 30.4404Z" fill="white"/>
<path d="M147.279 30.2055L144.422 30.2167L144.327 5.98999L150.416 5.96612L150.498 26.9608C150.505 28.7467 149.065 30.1985 147.279 30.2055Z" fill="white"/>
<path d="M63.2838 30.7185L60.4264 30.7297L60.3303 6.22424L66.4197 6.20037L66.5031 27.4739C66.5101 29.2597 65.0696 30.7115 63.2838 30.7185Z" fill="white"/>
<path d="M219.838 5.57202L202.145 5.64139C195.376 5.66793 189.892 11.1952 189.918 17.964C189.945 24.7329 195.472 30.2169 202.241 30.1904L219.934 30.121L219.91 24.0317L202.217 24.1011C198.811 24.1144 196.021 21.355 196.008 17.9401C195.994 14.5252 198.754 11.7441 202.168 11.7307L219.862 11.6614L219.838 5.57202Z" fill="white"/>
<path d="M199.701 17.9954C199.708 19.6767 201.081 21.039 202.762 21.0324L219.907 20.9652L219.883 14.8759L202.738 14.9431C201.057 14.9497 199.695 16.3228 199.701 18.0041L199.701 17.9954Z" fill="white"/>
<path d="M187.849 5.78453L156.105 5.909L156.129 11.9983L168.961 11.948L169.032 30.2073L171.89 30.1961C173.675 30.1891 175.116 28.7373 175.109 26.9515L175.05 11.9241L187.882 11.8738L187.858 5.7845L187.849 5.78453Z" fill="white"/>
<path d="M31.4408 43.6139C31.1338 43.0924 30.8356 42.5709 30.5287 42.0581L16.2592 42.114C15.8933 42.1155 15.5528 41.9164 15.3686 41.6035L7.10673 27.436C6.92256 27.1231 6.92099 26.7223 7.1027 26.408L15.2445 12.1674C15.4262 11.8531 15.7652 11.6514 16.1311 11.6499L22.3075 11.6257C22.9097 9.68939 24.5918 7.63556 25.4743 6.09885C25.5695 5.94167 25.6735 5.79316 25.7949 5.6533L16.1164 5.69125C13.6249 5.70102 11.3129 7.05167 10.0756 9.2083L1.92507 23.4402C0.687792 25.6056 0.698278 28.28 1.95249 30.4355L10.2057 44.6031C11.4599 46.7587 13.7824 48.0912 16.2739 48.0814L32.6777 48.0171C33.1916 48.0151 33.6879 47.9435 34.1841 47.837C32.952 46.8748 32.1513 44.8482 31.4408 43.6226L31.4408 43.6139Z" fill="white"/>
</g>
<defs>
<clipPath id="clip0_10664_18294">
<rect width="218.913" height="46.9815" fill="white" transform="translate(0.906738 1.43863) rotate(-0.224644)"/>
</clipPath>
</defs>
</svg>
