<svg width="21" height="20" viewBox="0 0 21 20" fill="none" xmlns="http://www.w3.org/2000/svg">
<path d="M9.50027 2.50163C6.45952 2.5071 4.86721 2.58175 3.84962 3.59932C2.75146 4.69745 2.75146 6.46487 2.75146 9.99965C2.75146 13.5345 2.75146 15.3019 3.84962 16.4C4.94777 17.4982 6.71524 17.4981 10.2502 17.4981C13.785 17.4981 15.5525 17.4982 16.6507 16.4C17.6683 15.3825 17.7429 13.7902 17.7484 10.7496" stroke="#181818" stroke-width="1.25" stroke-linecap="round" stroke-linejoin="round"/>
<path d="M17.317 2.93116L12.6926 7.54282M17.317 2.93116C16.9054 2.51906 14.1324 2.55748 13.5461 2.56581M17.317 2.93116C17.7286 3.34325 17.6903 6.11931 17.682 6.70618" stroke="#181818" stroke-width="1.25" stroke-linecap="round" stroke-linejoin="round"/>
</svg>
