<svg width="21" height="20" viewBox="0 0 21 20" fill="none" xmlns="http://www.w3.org/2000/svg">
<path d="M13.5138 0.833328L14.0121 1.76481C14.349 2.39455 14.5174 2.70942 14.4061 2.84427C14.2947 2.97912 13.9278 2.87022 13.1942 2.6524C12.4607 2.43462 11.6819 2.31746 10.8749 2.31746C6.50266 2.31746 2.95825 5.75705 2.95825 10C2.95825 11.3993 3.34377 12.7113 4.01736 13.8413M8.23603 19.1667L7.73772 18.2352C7.40082 17.6054 7.23237 17.2905 7.34375 17.1557C7.45514 17.0209 7.82199 17.1298 8.55566 17.3476C9.28917 17.5654 10.0679 17.6825 10.8749 17.6825C15.2472 17.6825 18.7916 14.2429 18.7916 10C18.7916 8.6007 18.4061 7.28872 17.7325 6.15872" stroke="#181818" stroke-width="1.25" stroke-linecap="round" stroke-linejoin="round"/>
</svg>
