<svg width="20" height="20" viewBox="0 0 20 20" fill="none" xmlns="http://www.w3.org/2000/svg">
<path d="M7.49996 18.3333H12.5C16.6666 18.3333 18.3333 16.6667 18.3333 12.5V7.49999C18.3333 3.33332 16.6666 1.66666 12.5 1.66666H7.49996C3.33329 1.66666 1.66663 3.33332 1.66663 7.49999V12.5C1.66663 16.6667 3.33329 18.3333 7.49996 18.3333Z" stroke="#FEB42B" stroke-width="1.5" stroke-linecap="round" stroke-linejoin="round"/>
<path d="M12.975 15.4167V12.1667" stroke="#FEB42B" stroke-width="1.5" stroke-miterlimit="10" stroke-linecap="round" stroke-linejoin="round"/>
<path d="M12.975 6.20834V4.58334" stroke="#FEB42B" stroke-width="1.5" stroke-miterlimit="10" stroke-linecap="round" stroke-linejoin="round"/>
<path d="M12.975 10.5417C14.1716 10.5417 15.1417 9.57163 15.1417 8.37501C15.1417 7.17839 14.1716 6.20834 12.975 6.20834C11.7784 6.20834 10.8083 7.17839 10.8083 8.37501C10.8083 9.57163 11.7784 10.5417 12.975 10.5417Z" stroke="#FEB42B" stroke-width="1.5" stroke-miterlimit="10" stroke-linecap="round" stroke-linejoin="round"/>
<path d="M7.02502 15.4167V13.7917" stroke="#FEB42B" stroke-width="1.5" stroke-miterlimit="10" stroke-linecap="round" stroke-linejoin="round"/>
<path d="M7.02502 7.83334V4.58334" stroke="#FEB42B" stroke-width="1.5" stroke-miterlimit="10" stroke-linecap="round" stroke-linejoin="round"/>
<path d="M7.02494 13.7917C8.22156 13.7917 9.19161 12.8216 9.19161 11.625C9.19161 10.4284 8.22156 9.45834 7.02494 9.45834C5.82833 9.45834 4.85828 10.4284 4.85828 11.625C4.85828 12.8216 5.82833 13.7917 7.02494 13.7917Z" stroke="#FEB42B" stroke-width="1.5" stroke-miterlimit="10" stroke-linecap="round" stroke-linejoin="round"/>
</svg>
