<svg width="20" height="20" viewBox="0 0 20 20" fill="none" xmlns="http://www.w3.org/2000/svg">
<path d="M12.5 1.66667H5.00004C4.55801 1.66667 4.13409 1.84226 3.82153 2.15482C3.50897 2.46738 3.33337 2.89131 3.33337 3.33333V16.6667C3.33337 17.1087 3.50897 17.5326 3.82153 17.8452C4.13409 18.1577 4.55801 18.3333 5.00004 18.3333H15C15.4421 18.3333 15.866 18.1577 16.1786 17.8452C16.4911 17.5326 16.6667 17.1087 16.6667 16.6667V5.83333L12.5 1.66667Z" stroke="#FB923C" stroke-width="1.5" stroke-linecap="round" stroke-linejoin="round"/>
<path d="M11.6666 1.66667V5C11.6666 5.44203 11.8422 5.86595 12.1548 6.17851C12.4673 6.49107 12.8913 6.66667 13.3333 6.66667H16.6666" stroke="#FB923C" stroke-width="1.5" stroke-linecap="round" stroke-linejoin="round"/>
<path d="M8.33329 7.5H6.66663" stroke="#FB923C" stroke-linecap="round" stroke-linejoin="round"/>
<path d="M13.3333 10.8333H6.66663" stroke="#FB923C" stroke-linecap="round" stroke-linejoin="round"/>
<path d="M13.3333 14.1667H6.66663" stroke="#FB923C" stroke-linecap="round" stroke-linejoin="round"/>
</svg>
