<svg width="18" height="20" viewBox="0 0 18 20" fill="none" xmlns="http://www.w3.org/2000/svg">
<path d="M11.5138 0.833328L12.0121 1.76481C12.349 2.39455 12.5174 2.70942 12.4061 2.84427C12.2947 2.97912 11.9278 2.87022 11.1942 2.6524C10.4607 2.43462 9.68192 2.31746 8.87492 2.31746C4.50266 2.31746 0.958252 5.75705 0.958252 10C0.958252 11.3993 1.34377 12.7113 2.01736 13.8413M6.23603 19.1667L5.73772 18.2352C5.40082 17.6054 5.23237 17.2905 5.34375 17.1557C5.45514 17.0209 5.82199 17.1298 6.55566 17.3476C7.28917 17.5654 8.06792 17.6825 8.87492 17.6825C13.2472 17.6825 16.7916 14.2429 16.7916 10C16.7916 8.6007 16.4061 7.28872 15.7325 6.15872" stroke="#181818" stroke-width="1.25" stroke-linecap="round" stroke-linejoin="round"/>
</svg>
